<svg width="23" height="22" viewBox="0 0 23 22" fill="none" xmlns="http://www.w3.org/2000/svg">
<path d="M4.452 0.48H5.32L6.02 10H5.012L4.886 7.62H2.394L1.428 10H0.392L4.452 0.48ZM4.844 6.78L4.606 2.216L2.744 6.78H4.844ZM9.60783 0.48C10.4012 0.405333 11.2038 0.368 12.0158 0.368C12.8932 0.368 13.5418 0.522 13.9618 0.83C14.3818 1.138 14.5918 1.628 14.5918 2.3C14.5918 2.48667 14.5685 2.72933 14.5218 3.028C14.4192 3.588 14.2605 4.04067 14.0458 4.386C13.8405 4.722 13.5885 5.002 13.2898 5.226C13.5792 5.37533 13.8032 5.59467 13.9618 5.884C14.1205 6.164 14.1998 6.50467 14.1998 6.906C14.1998 7.12067 14.1812 7.32133 14.1438 7.508C13.9758 8.46 13.5792 9.15067 12.9538 9.58C12.3378 10.0093 11.5025 10.224 10.4478 10.224C9.52383 10.224 8.70249 10.1447 7.98383 9.986L9.60783 0.48ZM9.04783 9.202C9.49583 9.32333 9.99516 9.384 10.5458 9.384C11.2085 9.384 11.7825 9.23467 12.2678 8.936C12.7532 8.628 13.0612 8.10533 13.1918 7.368C13.2292 7.12533 13.2478 6.95733 13.2478 6.864C13.2478 6.42533 13.0845 6.12667 12.7578 5.968C12.4405 5.8 11.9178 5.72067 11.1898 5.73L9.67783 5.744L9.04783 9.202ZM11.4138 4.89C11.7592 4.89 12.0625 4.85267 12.3238 4.778C12.5852 4.694 12.8278 4.50733 13.0518 4.218C13.2852 3.91933 13.4532 3.476 13.5558 2.888C13.5932 2.71067 13.6118 2.52867 13.6118 2.342C13.6118 1.894 13.4625 1.59067 13.1638 1.432C12.8745 1.27333 12.4078 1.194 11.7638 1.194C11.3905 1.194 10.9705 1.208 10.5038 1.236L9.83183 4.918L11.4138 4.89ZM20.9097 8.852C20.6203 9.22533 20.2423 9.54733 19.7757 9.818C19.309 10.0887 18.791 10.224 18.2217 10.224C17.391 10.224 16.733 9.92067 16.2477 9.314C15.7717 8.698 15.5337 7.83933 15.5337 6.738C15.5337 6.28067 15.585 5.758 15.6877 5.17C15.8557 4.218 16.1497 3.378 16.5697 2.65C16.999 1.91267 17.4983 1.34333 18.0677 0.942C18.6463 0.540666 19.239 0.339999 19.8457 0.339999C20.4243 0.339999 20.9143 0.489333 21.3157 0.787999C21.7263 1.08667 22.0063 1.44133 22.1557 1.852L21.4417 2.37C21.2737 1.98733 21.059 1.70267 20.7977 1.516C20.5457 1.32933 20.2143 1.236 19.8037 1.236C19.3557 1.236 18.917 1.39933 18.4877 1.726C18.0583 2.04333 17.6803 2.50533 17.3537 3.112C17.0363 3.71867 16.803 4.43267 16.6537 5.254C16.5603 5.74867 16.5137 6.22933 16.5137 6.696C16.5137 7.52667 16.663 8.18467 16.9617 8.67C17.2697 9.146 17.699 9.384 18.2497 9.384C18.623 9.384 18.9403 9.3 19.2017 9.132C19.463 8.95467 19.7337 8.712 20.0137 8.404L20.2377 8.166L20.9097 8.852ZM1.204 20.16H3.43L4.774 12.544L2.254 14.742L2.1 13.776L4.942 11.48H5.936L4.41 20.16H6.384L6.244 21H1.064L1.204 20.16ZM9.35583 12.95C9.37449 12.838 9.50049 12.642 9.73383 12.362C9.97649 12.082 10.2985 11.83 10.6998 11.606C11.1012 11.3727 11.5538 11.256 12.0578 11.256C12.7205 11.256 13.2618 11.4147 13.6818 11.732C14.1112 12.0493 14.3258 12.53 14.3258 13.174C14.3258 13.3793 14.3072 13.5753 14.2698 13.762C14.1858 14.238 14.0132 14.6627 13.7518 15.036C13.4998 15.4093 13.2152 15.7313 12.8978 16.002C12.5898 16.2633 12.1745 16.5807 11.6518 16.954C11.1292 17.3273 10.7138 17.6447 10.4058 17.906C10.1072 18.1673 9.83649 18.4753 9.59383 18.83C9.35116 19.1847 9.19716 19.5907 9.13183 20.048L13.4718 20.034L13.3038 21H7.98383L8.16583 19.978C8.24983 19.418 8.43649 18.9187 8.72583 18.48C9.02449 18.0413 9.35583 17.6633 9.71983 17.346C10.0838 17.0193 10.5505 16.6507 11.1198 16.24C11.5772 15.8947 11.9365 15.61 12.1978 15.386C12.4685 15.162 12.7018 14.9147 12.8978 14.644C13.1032 14.3733 13.2338 14.0793 13.2898 13.762C13.3178 13.5753 13.3318 13.4073 13.3318 13.258C13.3318 12.4833 12.9025 12.096 12.0438 12.096C11.5398 12.096 11.1245 12.2267 10.7978 12.488C10.4805 12.7493 10.2005 13.048 9.95783 13.384L9.35583 12.95ZM18.8097 15.596C19.5283 15.596 20.1023 15.778 20.5317 16.142C20.9703 16.506 21.1897 17.0147 21.1897 17.668C21.1897 17.78 21.171 17.9667 21.1337 18.228C21.0123 18.9187 20.7837 19.488 20.4477 19.936C20.1117 20.3747 19.7243 20.6967 19.2857 20.902C18.8563 21.098 18.4223 21.196 17.9837 21.196C17.545 21.196 17.111 21.112 16.6817 20.944C16.2523 20.7667 15.9163 20.524 15.6737 20.216L16.2477 19.572C16.4437 19.796 16.7003 19.9827 17.0177 20.132C17.3443 20.2813 17.657 20.356 17.9557 20.356C18.245 20.356 18.5437 20.2767 18.8517 20.118C19.1597 19.9593 19.435 19.712 19.6777 19.376C19.9203 19.0307 20.0837 18.6013 20.1677 18.088C20.1863 18.0133 20.1957 17.9013 20.1957 17.752C20.1957 17.276 20.0043 16.9167 19.6217 16.674C19.2483 16.422 18.8143 16.296 18.3197 16.296H17.0597L20.5457 12.32H17.2977L17.4517 11.48H21.7917L21.6517 12.32L18.8097 15.596Z" fill="black"/>
</svg>
