<svg width="24" height="24" viewBox="0 0 24 24" fill="none" xmlns="http://www.w3.org/2000/svg">
<path d="M8 7.5C7.78217 7.5 7.18939 7.5 6.50047 7.5C4.84362 7.5 3.5 8.84314 3.5 10.5V10.5V15V19.5V19.5C3.5 20.7427 4.50737 21.75 5.75003 21.75C6.51191 21.75 7.21997 21.75 7.50002 21.75H16.5C16.7707 21.75 17.4877 21.75 18.2498 21.75C19.4925 21.75 20.5 20.7426 20.5 19.5V19.5V15V10.5V10.5C20.5 8.84315 19.1563 7.5 17.4995 7.5C17.0461 7.5 16.6727 7.5 16.5 7.5M15 4.5L12 1.5M12 1.5L9.00002 4.5M12 1.5V6.675V11" stroke="black" stroke-width="1.5" stroke-linecap="round" stroke-linejoin="round"/>
<path d="M14.0377 13.7732L16.0755 15.5687L14.0377 17.3641M9.96227 17.3641L7.92453 15.5687L9.96227 13.7732" stroke="black" stroke-width="1.5" stroke-linecap="round" stroke-linejoin="round"/>
</svg>
