<svg width="28" height="20" viewBox="0 0 28 20" fill="none" xmlns="http://www.w3.org/2000/svg">
<path d="M2.50396 5.035H4.85796L5.57296 0.964999H6.51896L5.17696 8.555H4.24196L4.72596 5.805H2.36096L1.87696 8.555H0.941962L2.27296 0.964999H3.21896L2.50396 5.035ZM11.879 1.735H10.108L8.89797 8.555H7.96297L9.16197 1.735H7.20397L7.33597 0.964999H12.022L11.879 1.735ZM12.916 0.953999L13.829 0.964999L14.115 5.508L15.996 0.964999H16.931L16.26 8.555H15.325L15.864 3.154L14.225 7.378H13.378L13.224 3.154L11.849 8.555H10.914L12.916 0.953999ZM18.331 0.964999H19.277L18.067 7.807H21.279L21.136 8.577H17.011V8.555H17L18.331 0.964999ZM16.073 18.587C15.8456 18.8877 15.5376 19.1553 15.149 19.39C14.7676 19.6173 14.3386 19.731 13.862 19.731C13.18 19.731 12.6446 19.4853 12.256 18.994C11.8673 18.5027 11.673 17.817 11.673 16.937C11.673 16.5703 11.7133 16.156 11.794 15.694C11.926 14.9387 12.1606 14.2713 12.498 13.692C12.8353 13.1053 13.235 12.6543 13.697 12.339C14.1663 12.0163 14.6466 11.855 15.138 11.855C15.622 11.855 16.0326 11.9833 16.37 12.24C16.7146 12.4893 16.9383 12.779 17.041 13.109L16.348 13.615C16.2086 13.285 16.0473 13.0467 15.864 12.9C15.6806 12.746 15.4276 12.669 15.105 12.669C14.7676 12.669 14.434 12.7937 14.104 13.043C13.7813 13.285 13.4953 13.6407 13.246 14.11C13.004 14.5793 12.828 15.1367 12.718 15.782C12.6446 16.178 12.608 16.563 12.608 16.937C12.608 17.5677 12.718 18.0627 12.938 18.422C13.1653 18.7813 13.4806 18.961 13.884 18.961C14.148 18.961 14.3716 18.8987 14.555 18.774C14.7456 18.6493 14.9546 18.4697 15.182 18.235C15.2773 18.125 15.369 18.0333 15.457 17.96L16.073 18.587ZM21.851 13.241C21.7337 13.0723 21.5687 12.9183 21.356 12.779C21.1507 12.6323 20.9123 12.559 20.641 12.559C20.0543 12.559 19.6033 12.691 19.288 12.955C18.98 13.2117 18.7967 13.538 18.738 13.934C18.7307 13.956 18.727 13.989 18.727 14.033C18.727 14.231 18.8223 14.4107 19.013 14.572C19.211 14.7333 19.5117 14.924 19.915 15.144C20.2963 15.364 20.608 15.5583 20.85 15.727C21.092 15.8957 21.2973 16.1047 21.466 16.354C21.642 16.6033 21.73 16.8893 21.73 17.212C21.73 17.322 21.719 17.443 21.697 17.575C21.5723 18.191 21.3303 18.7007 20.971 19.104C20.6117 19.5 20.0323 19.698 19.233 19.698C18.727 19.698 18.2907 19.6173 17.924 19.456C17.5647 19.2873 17.286 19.093 17.088 18.873C16.8973 18.6457 16.7983 18.4587 16.791 18.312L17.363 17.894C17.407 17.938 17.517 18.0553 17.693 18.246C17.869 18.4293 18.0853 18.5907 18.342 18.73C18.606 18.862 18.8883 18.928 19.189 18.928C20.0617 18.928 20.5933 18.4367 20.784 17.454C20.7987 17.3807 20.806 17.3257 20.806 17.289C20.806 17.0397 20.6997 16.8233 20.487 16.64C20.2743 16.4567 19.9443 16.2403 19.497 15.991C19.1377 15.7857 18.8443 15.606 18.617 15.452C18.3897 15.2907 18.1953 15.0963 18.034 14.869C17.88 14.6417 17.803 14.3813 17.803 14.088C17.803 13.9633 17.8103 13.868 17.825 13.802C17.8837 13.4427 18.0267 13.1127 18.254 12.812C18.4887 12.504 18.8113 12.2583 19.222 12.075C19.6327 11.8843 20.1167 11.789 20.674 11.789C21.0847 11.789 21.422 11.8807 21.686 12.064C21.95 12.24 22.1847 12.4417 22.39 12.669L21.851 13.241ZM27.134 13.241C27.0167 13.0723 26.8517 12.9183 26.639 12.779C26.4337 12.6323 26.1953 12.559 25.924 12.559C25.3373 12.559 24.8863 12.691 24.571 12.955C24.263 13.2117 24.0797 13.538 24.021 13.934C24.0137 13.956 24.01 13.989 24.01 14.033C24.01 14.231 24.1053 14.4107 24.296 14.572C24.494 14.7333 24.7947 14.924 25.198 15.144C25.5793 15.364 25.891 15.5583 26.133 15.727C26.375 15.8957 26.5803 16.1047 26.749 16.354C26.925 16.6033 27.013 16.8893 27.013 17.212C27.013 17.322 27.002 17.443 26.98 17.575C26.8553 18.191 26.6133 18.7007 26.254 19.104C25.8947 19.5 25.3153 19.698 24.516 19.698C24.01 19.698 23.5737 19.6173 23.207 19.456C22.8477 19.2873 22.569 19.093 22.371 18.873C22.1803 18.6457 22.0813 18.4587 22.074 18.312L22.646 17.894C22.69 17.938 22.8 18.0553 22.976 18.246C23.152 18.4293 23.3683 18.5907 23.625 18.73C23.889 18.862 24.1713 18.928 24.472 18.928C25.3447 18.928 25.8763 18.4367 26.067 17.454C26.0817 17.3807 26.089 17.3257 26.089 17.289C26.089 17.0397 25.9827 16.8233 25.77 16.64C25.5573 16.4567 25.2273 16.2403 24.78 15.991C24.4207 15.7857 24.1273 15.606 23.9 15.452C23.6727 15.2907 23.4783 15.0963 23.317 14.869C23.163 14.6417 23.086 14.3813 23.086 14.088C23.086 13.9633 23.0933 13.868 23.108 13.802C23.1667 13.4427 23.3097 13.1127 23.537 12.812C23.7717 12.504 24.0943 12.2583 24.505 12.075C24.9157 11.8843 25.3997 11.789 25.957 11.789C26.3677 11.789 26.705 11.8807 26.969 12.064C27.233 12.24 27.4677 12.4417 27.673 12.669L27.134 13.241Z" fill="black"/>
<path d="M0.534962 10.425H27.497V10.975H0.534962V10.425ZM11.101 21.425H27.497V21.975H11.101V21.425Z" fill="black"/>
</svg>
