<svg width="23" height="21" viewBox="0 0 23 21" fill="none" xmlns="http://www.w3.org/2000/svg">
<path d="M2.23144 4.72H4.79944L5.57944 0.279999H6.61144L5.14744 8.56H4.12744L4.65544 5.56H2.07544L1.54744 8.56H0.527438L1.97944 0.279999H3.01144L2.23144 4.72ZM12.5187 1.12H10.5867L9.26672 8.56H8.24672L9.55472 1.12H7.41872L7.56272 0.279999H12.6747L12.5187 1.12ZM13.71 0.267999L14.706 0.279999L15.018 5.236L17.07 0.279999H18.09L17.358 8.56H16.338L16.926 2.668L15.138 7.276H14.214L14.046 2.668L12.546 8.56H11.526L13.71 0.267999ZM19.6773 0.279999H20.7093L19.3893 7.744H22.8933L22.7373 8.584H18.2373V8.56H18.2253L19.6773 0.279999ZM8.47908 19.504C8.23108 19.832 7.89508 20.124 7.47108 20.38C7.05508 20.628 6.58708 20.752 6.06708 20.752C5.32308 20.752 4.73908 20.484 4.31508 19.948C3.89108 19.412 3.67908 18.664 3.67908 17.704C3.67908 17.304 3.72308 16.852 3.81108 16.348C3.95508 15.524 4.21108 14.796 4.57908 14.164C4.94708 13.524 5.38308 13.032 5.88708 12.688C6.39908 12.336 6.92308 12.16 7.45908 12.16C7.98708 12.16 8.43508 12.3 8.80308 12.58C9.17908 12.852 9.42308 13.168 9.53508 13.528L8.77908 14.08C8.62708 13.72 8.45108 13.46 8.25108 13.3C8.05108 13.132 7.77508 13.048 7.42308 13.048C7.05508 13.048 6.69108 13.184 6.33108 13.456C5.97908 13.72 5.66708 14.108 5.39508 14.62C5.13108 15.132 4.93908 15.74 4.81908 16.444C4.73908 16.876 4.69908 17.296 4.69908 17.704C4.69908 18.392 4.81908 18.932 5.05908 19.324C5.30708 19.716 5.65108 19.912 6.09108 19.912C6.37908 19.912 6.62308 19.844 6.82308 19.708C7.03108 19.572 7.25908 19.376 7.50708 19.12C7.61108 19 7.71108 18.9 7.80708 18.82L8.47908 19.504ZM14.7824 13.672C14.6544 13.488 14.4744 13.32 14.2424 13.168C14.0184 13.008 13.7584 12.928 13.4624 12.928C12.8224 12.928 12.3304 13.072 11.9864 13.36C11.6504 13.64 11.4504 13.996 11.3864 14.428C11.3784 14.452 11.3744 14.488 11.3744 14.536C11.3744 14.752 11.4784 14.948 11.6864 15.124C11.9024 15.3 12.2304 15.508 12.6704 15.748C13.0864 15.988 13.4264 16.2 13.6904 16.384C13.9544 16.568 14.1784 16.796 14.3624 17.068C14.5544 17.34 14.6504 17.652 14.6504 18.004C14.6504 18.124 14.6384 18.256 14.6144 18.4C14.4784 19.072 14.2144 19.628 13.8224 20.068C13.4304 20.5 12.7984 20.716 11.9264 20.716C11.3744 20.716 10.8984 20.628 10.4984 20.452C10.1064 20.268 9.80236 20.056 9.58636 19.816C9.37836 19.568 9.27036 19.364 9.26236 19.204L9.88636 18.748C9.93436 18.796 10.0544 18.924 10.2464 19.132C10.4384 19.332 10.6744 19.508 10.9544 19.66C11.2424 19.804 11.5504 19.876 11.8784 19.876C12.8304 19.876 13.4104 19.34 13.6184 18.268C13.6344 18.188 13.6424 18.128 13.6424 18.088C13.6424 17.816 13.5264 17.58 13.2944 17.38C13.0624 17.18 12.7024 16.944 12.2144 16.672C11.8224 16.448 11.5024 16.252 11.2544 16.084C11.0064 15.908 10.7944 15.696 10.6184 15.448C10.4504 15.2 10.3664 14.916 10.3664 14.596C10.3664 14.46 10.3744 14.356 10.3904 14.284C10.4544 13.892 10.6104 13.532 10.8584 13.204C11.1144 12.868 11.4664 12.6 11.9144 12.4C12.3624 12.192 12.8904 12.088 13.4984 12.088C13.9464 12.088 14.3144 12.188 14.6024 12.388C14.8904 12.58 15.1464 12.8 15.3704 13.048L14.7824 13.672ZM20.5456 13.672C20.4176 13.488 20.2376 13.32 20.0056 13.168C19.7816 13.008 19.5216 12.928 19.2256 12.928C18.5856 12.928 18.0936 13.072 17.7496 13.36C17.4136 13.64 17.2136 13.996 17.1496 14.428C17.1416 14.452 17.1376 14.488 17.1376 14.536C17.1376 14.752 17.2416 14.948 17.4496 15.124C17.6656 15.3 17.9936 15.508 18.4336 15.748C18.8496 15.988 19.1896 16.2 19.4536 16.384C19.7176 16.568 19.9416 16.796 20.1256 17.068C20.3176 17.34 20.4136 17.652 20.4136 18.004C20.4136 18.124 20.4016 18.256 20.3776 18.4C20.2416 19.072 19.9776 19.628 19.5856 20.068C19.1936 20.5 18.5616 20.716 17.6896 20.716C17.1376 20.716 16.6616 20.628 16.2616 20.452C15.8696 20.268 15.5656 20.056 15.3496 19.816C15.1416 19.568 15.0336 19.364 15.0256 19.204L15.6496 18.748C15.6976 18.796 15.8176 18.924 16.0096 19.132C16.2016 19.332 16.4376 19.508 16.7176 19.66C17.0056 19.804 17.3136 19.876 17.6416 19.876C18.5936 19.876 19.1736 19.34 19.3816 18.268C19.3976 18.188 19.4056 18.128 19.4056 18.088C19.4056 17.816 19.2896 17.58 19.0576 17.38C18.8256 17.18 18.4656 16.944 17.9776 16.672C17.5856 16.448 17.2656 16.252 17.0176 16.084C16.7696 15.908 16.5576 15.696 16.3816 15.448C16.2136 15.2 16.1296 14.916 16.1296 14.596C16.1296 14.46 16.1376 14.356 16.1536 14.284C16.2176 13.892 16.3736 13.532 16.6216 13.204C16.8776 12.868 17.2296 12.6 17.6776 12.4C18.1256 12.192 18.6536 12.088 19.2616 12.088C19.7096 12.088 20.0776 12.188 20.3656 12.388C20.6536 12.58 20.9096 12.8 21.1336 13.048L20.5456 13.672Z" fill="black"/>
</svg>
