<svg width="24" height="16" viewBox="0 0 24 16" fill="none" xmlns="http://www.w3.org/2000/svg">
<path d="M5.088 2.62H6.08L6.88 13.5H5.728L5.584 10.78H2.736L1.632 13.5H0.448L5.088 2.62ZM5.536 9.82L5.264 4.604L3.136 9.82H5.536Z" fill="black"/>
<path fill-rule="evenodd" clip-rule="evenodd" d="M8 0.5C8 0.367392 8.05268 0.240215 8.14645 0.146447C8.24021 0.0526784 8.36739 0 8.5 0L12.5 0C12.6326 0 12.7598 0.0526784 12.8536 0.146447C12.9473 0.240215 13 0.367392 13 0.5C13 0.632608 12.9473 0.759785 12.8536 0.853553C12.7598 0.947322 12.6326 1 12.5 1H8.5C8.36739 1 8.24021 0.947322 8.14645 0.853553C8.05268 0.759785 8 0.632608 8 0.5ZM8 2.5C8 2.36739 8.05268 2.24021 8.14645 2.14645C8.24021 2.05268 8.36739 2 8.5 2H15.5C15.6326 2 15.7598 2.05268 15.8536 2.14645C15.9473 2.24021 16 2.36739 16 2.5C16 2.63261 15.9473 2.75979 15.8536 2.85355C15.7598 2.94732 15.6326 3 15.5 3H8.5C8.36739 3 8.24021 2.94732 8.14645 2.85355C8.05268 2.75979 8 2.63261 8 2.5ZM17 2.5C17 2.36739 17.0527 2.24021 17.1464 2.14645C17.2402 2.05268 17.3674 2 17.5 2H22.5C22.6326 2 22.7598 2.05268 22.8536 2.14645C22.9473 2.24021 23 2.36739 23 2.5C23 2.63261 22.9473 2.75979 22.8536 2.85355C22.7598 2.94732 22.6326 3 22.5 3H17.5C17.3674 3 17.2402 2.94732 17.1464 2.85355C17.0527 2.75979 17 2.63261 17 2.5ZM8 4.5C8 4.36739 8.05268 4.24021 8.14645 4.14645C8.24021 4.05268 8.36739 4 8.5 4H11.5C11.6326 4 11.7598 4.05268 11.8536 4.14645C11.9473 4.24021 12 4.36739 12 4.5C12 4.63261 11.9473 4.75979 11.8536 4.85355C11.7598 4.94732 11.6326 5 11.5 5H8.5C8.36739 5 8.24021 4.94732 8.14645 4.85355C8.05268 4.75979 8 4.63261 8 4.5ZM13 4.5C13 4.36739 13.0527 4.24021 13.1464 4.14645C13.2402 4.05268 13.3674 4 13.5 4H18.5C18.6326 4 18.7598 4.05268 18.8536 4.14645C18.9473 4.24021 19 4.36739 19 4.5C19 4.63261 18.9473 4.75979 18.8536 4.85355C18.7598 4.94732 18.6326 5 18.5 5H13.5C13.3674 5 13.2402 4.94732 13.1464 4.85355C13.0527 4.75979 13 4.63261 13 4.5ZM20 4.5C20 4.36739 20.0527 4.24021 20.1464 4.14645C20.2402 4.05268 20.3674 4 20.5 4H23.5C23.6326 4 23.7598 4.05268 23.8536 4.14645C23.9473 4.24021 24 4.36739 24 4.5C24 4.63261 23.9473 4.75979 23.8536 4.85355C23.7598 4.94732 23.6326 5 23.5 5H20.5C20.3674 5 20.2402 4.94732 20.1464 4.85355C20.0527 4.75979 20 4.63261 20 4.5ZM8 6.5C8 6.36739 8.05268 6.24021 8.14645 6.14645C8.24021 6.05268 8.36739 6 8.5 6H14.5C14.6326 6 14.7598 6.05268 14.8536 6.14645C14.9473 6.24021 15 6.36739 15 6.5C15 6.63261 14.9473 6.75979 14.8536 6.85355C14.7598 6.94732 14.6326 7 14.5 7H8.5C8.36739 7 8.24021 6.94732 8.14645 6.85355C8.05268 6.75979 8 6.63261 8 6.5ZM16 6.5C16 6.36739 16.0527 6.24021 16.1464 6.14645C16.2402 6.05268 16.3674 6 16.5 6H21.5C21.6326 6 21.7598 6.05268 21.8536 6.14645C21.9473 6.24021 22 6.36739 22 6.5C22 6.63261 21.9473 6.75979 21.8536 6.85355C21.7598 6.94732 21.6326 7 21.5 7H16.5C16.3674 7 16.2402 6.94732 16.1464 6.85355C16.0527 6.75979 16 6.63261 16 6.5ZM8 8.5C8 8.36739 8.05268 8.24021 8.14645 8.14645C8.24021 8.05268 8.36739 8 8.5 8H13.5C13.6326 8 13.7598 8.05268 13.8536 8.14645C13.9473 8.24021 14 8.36739 14 8.5C14 8.63261 13.9473 8.75979 13.8536 8.85355C13.7598 8.94732 13.6326 9 13.5 9H8.5C8.36739 9 8.24021 8.94732 8.14645 8.85355C8.05268 8.75979 8 8.63261 8 8.5ZM15 8.5C15 8.36739 15.0527 8.24021 15.1464 8.14645C15.2402 8.05268 15.3674 8 15.5 8H22.5C22.6326 8 22.7598 8.05268 22.8536 8.14645C22.9473 8.24021 23 8.36739 23 8.5C23 8.63261 22.9473 8.75979 22.8536 8.85355C22.7598 8.94732 22.6326 9 22.5 9H15.5C15.3674 9 15.2402 8.94732 15.1464 8.85355C15.0527 8.75979 15 8.63261 15 8.5ZM8 10.5C8 10.3674 8.05268 10.2402 8.14645 10.1464C8.24021 10.0527 8.36739 10 8.5 10H16.5C16.6326 10 16.7598 10.0527 16.8536 10.1464C16.9473 10.2402 17 10.3674 17 10.5C17 10.6326 16.9473 10.7598 16.8536 10.8536C16.7598 10.9473 16.6326 11 16.5 11H8.5C8.36739 11 8.24021 10.9473 8.14645 10.8536C8.05268 10.7598 8 10.6326 8 10.5ZM8 12.5C8 12.3674 8.05268 12.2402 8.14645 12.1464C8.24021 12.0527 8.36739 12 8.5 12H12.5C12.6326 12 12.7598 12.0527 12.8536 12.1464C12.9473 12.2402 13 12.3674 13 12.5C13 12.6326 12.9473 12.7598 12.8536 12.8536C12.7598 12.9473 12.6326 13 12.5 13H8.5C8.36739 13 8.24021 12.9473 8.14645 12.8536C8.05268 12.7598 8 12.6326 8 12.5ZM8 14.5C8 14.3674 8.05268 14.2402 8.14645 14.1464C8.24021 14.0527 8.36739 14 8.5 14H10.5C10.6326 14 10.7598 14.0527 10.8536 14.1464C10.9473 14.2402 11 14.3674 11 14.5C11 14.6326 10.9473 14.7598 10.8536 14.8536C10.7598 14.9473 10.6326 15 10.5 15H8.5C8.36739 15 8.24021 14.9473 8.14645 14.8536C8.05268 14.7598 8 14.6326 8 14.5Z" fill="black"/>
</svg>
