<?xml version="1.0" standalone="no"?>
<!DOCTYPE svg PUBLIC "-//W3C//DTD SVG 20010904//EN"
 "http://www.w3.org/TR/2001/REC-SVG-20010904/DTD/svg10.dtd">
<svg version="1.0" xmlns="http://www.w3.org/2000/svg"
 width="512.000000pt" height="512.000000pt" viewBox="0 0 512.000000 512.000000"
 preserveAspectRatio="xMidYMid meet">
<metadata>
Created by potrace 1.14, written by Peter Selinger 2001-2017
</metadata>
<g transform="translate(0.000000,512.000000) scale(0.100000,-0.100000)"
fill="#000000" stroke="none">
<path d="M920 2840 l0 -1360 140 0 140 0 0 580 0 580 500 0 500 0 0 125 0 125
-500 0 -500 0 0 535 0 535 600 0 600 0 0 120 0 120 -740 0 -740 0 0 -1360z"/>
<path d="M3110 2382 l350 -698 -220 -497 c-121 -274 -220 -500 -220 -503 0 -2
73 -3 161 -2 l162 3 527 1195 528 1195 -156 3 c-85 1 -159 -1 -163 -5 -5 -6
-402 -895 -453 -1016 l-13 -32 -261 528 -261 527 -166 0 -166 0 351 -698z"/>
</g>
</svg>
